<?xml version="1.0" encoding="UTF-8"?>
<svg id="Ebene_1" xmlns="http://www.w3.org/2000/svg" version="1.1" viewBox="0 0 708.7 198.4" fill="#fff">
  <!-- Generator: Adobe Illustrator 30.2.1, SVG Export Plug-In . SVG Version: 2.1.1 Build 1)  -->
  <defs>
    <style>
      .st0 {
        isolation: isolate;
      }
    </style>
  </defs>
  <g id="Ebene_11" data-name="Ebene_1">
    <g>
      <g id="DORF">
        <g class="st0">
          <g class="st0">
            <g class="st0">
              <path d="M464.5,11.4l14.7,8.9v106.4l-66,52.8,1.7-4.1V16.8l-4.3-5.4h53.9ZM438.8,37v83.3l14.5-11V37h-14.5Z"/>
              <path d="M541.8,11.4l9.5,11v125.9l-35.3,29.8-29.6-27.5V23.3l9.1-11.9h46.3ZM510.8,34.8v97.3l14.5,12.8V34.8h-14.5Z"/>
            </g>
          </g>
          <g class="st0">
            <g class="st0">
              <path d="M582.8,152.5l-25.7-18.4,1.5-1.3V16.8l-4.3-5.4h53.9l14.7,8.9v45.6l-22.7,13,22.7,12.1v84.8l2.4,8.7-29.2-22.1,3.2-4.8v-56.5l-16.4-8.7v59.9ZM582.4,65.5l17.3-10.4v-18.2h-17.3v28.6Z"/>
            </g>
          </g>
          <g class="st0">
            <g class="st0">
              <path d="M693.2,16.8v25.3h-26v-5.2h-14.5v32.9h24.9v25.5h-24.9v84.1l1.5,6.7-28.8-21.2,3.5-5.2V16.8l-4.3-5.4h73.1l-4.5,5.4Z"/>
            </g>
          </g>
        </g>
      </g>
      <g id="METAL">
        <g class="st0">
          <g class="st0">
            <g class="st0">
              <path d="M69.5,88.2l-16.2,57.8-15.8-43v57.5l3.5,5-14.7,11-14.1,10.4,2.8-13V17.7l-4.1-6.3h28.6l13.4,34.2,12.5-34.2h27.7l-1.7,5.2v108.6l1.5,1.3-23.4,17.5v-55.8Z"/>
            </g>
          </g>
          <g class="st0">
            <g class="st0">
              <path d="M162.6,123.7l1.9,1.7-1.9,1.5v-.2l-67.3,53.6,3-12.5V16.8l-4.3-5.4h53.9l14.7,8.9v21.8h-26v-5.2h-14.5v24.2h24.9v25.5h-24.9v33.1l14.5-10.6v-10h26v24.4Z"/>
              <path d="M189.7,37h-19.3v-20.1l-4.3-5.4h72.9l-4.3,5.4v20.1h-21v123.5l3.5,5.2-30.1,21.6,2.6-11.7V37Z"/>
            </g>
          </g>
          <g class="st0">
            <g class="st0">
              <path d="M242.3,20.3l14.7-8.9h53.9l-4.3,5.4v160.3l1.5,6.5-5.8-4.5-22.3-17.5,1.3-3.9v-60.1h-15.1v53.2l-25.3-19.9,1.5-1.3V20.3ZM266.1,37v35h15.1v-35h-15.1Z"/>
              <path d="M314.3,16.8l-4.3-5.4h32.4l-4.3,5.4v92.4l14.5,11.2v-21.2h26v76.1l1.7,4.1-66-52.8V16.8Z"/>
            </g>
          </g>
        </g>
      </g>
      <g id="im">
        <g class="st0">
          <g class="st0">
            <g class="st0">
              <path d="M352.9,23.8v-12.4h11.6v12.4h-11.6ZM352.9,26.9h11.6v59.9l-11.6,10.6V26.9Z"/>
            </g>
          </g>
          <g class="st0">
            <g class="st0">
              <path d="M394.8,26.9h11.6v59.9l-11.6,10.6v-34.2l-7.6,24-8.6-23.7v34l-11.6-10.6V26.9h11.6l7.6,21.7,8.6-21.7Z"/>
            </g>
          </g>
        </g>
      </g>
    </g>
  </g>
</svg>